<?xml version="1.0" encoding="UTF-8"?>
<svg width="20px" height="20px" viewBox="0 0 20 20" version="1.1" xmlns="http://www.w3.org/2000/svg" xmlns:xlink="http://www.w3.org/1999/xlink">
    <title>Calendar</title>
    <defs>
        <filter color-interpolation-filters="auto" id="filter-1">
            <feColorMatrix in="SourceGraphic" type="matrix" values="0 0 0 0 0.000000 0 0 0 0 0.000000 0 0 0 0 0.000000 0 0 0 1.000000 0"></feColorMatrix>
        </filter>
    </defs>
    <g id="Calendar" stroke="none" stroke-width="1" fill="none" fill-rule="evenodd">
        <g filter="url(#filter-1)" id="Icon">
            <g transform="translate(1.000000, 0.500000)">
                <path d="M17.5,7.75 C17.7761424,7.75 18,7.97385763 18,8.25 L18,17 C18,18.1045695 17.1045695,19 16,19 L2,19 C0.8954305,19 0,18.1045695 0,17 L0,8.25 C0,7.97385763 0.223857625,7.75 0.5,7.75 L17.5,7.75 Z M14.5,14.5 L13,14.5 C12.7238576,14.5 12.5,14.7238576 12.5,15 L12.5,16.5 C12.5,16.7761424 12.7238576,17 13,17 L14.5,17 C14.7761424,17 15,16.7761424 15,16.5 L15,15 C15,14.7238576 14.7761424,14.5 14.5,14.5 Z M9.75,14.5 L8.25,14.5 C7.97385763,14.5 7.75,14.7238576 7.75,15 L7.75,16.5 C7.75,16.7761424 7.97385763,17 8.25,17 L9.75,17 C10.0261424,17 10.25,16.7761424 10.25,16.5 L10.25,15 C10.25,14.7238576 10.0261424,14.5 9.75,14.5 Z M5,14.5 L3.5,14.5 C3.22385763,14.5 3,14.7238576 3,15 L3,16.5 C3,16.7761424 3.22385763,17 3.5,17 L5,17 C5.27614237,17 5.5,16.7761424 5.5,16.5 L5.5,15 C5.5,14.7238576 5.27614237,14.5 5,14.5 Z M14.5,9.75 L13,9.75 C12.7238576,9.75 12.5,9.97385763 12.5,10.25 L12.5,11.75 C12.5,12.0261424 12.7238576,12.25 13,12.25 L14.5,12.25 C14.7761424,12.25 15,12.0261424 15,11.75 L15,10.25 C15,9.97385763 14.7761424,9.75 14.5,9.75 Z M9.75,9.75 L8.25,9.75 C7.97385763,9.75 7.75,9.97385763 7.75,10.25 L7.75,11.75 C7.75,12.0261424 7.97385763,12.25 8.25,12.25 L9.75,12.25 C10.0261424,12.25 10.25,12.0261424 10.25,11.75 L10.25,10.25 C10.25,9.97385763 10.0261424,9.75 9.75,9.75 Z M5,9.75 L3.5,9.75 C3.22385763,9.75 3,9.97385763 3,10.25 L3,11.75 C3,12.0261424 3.22385763,12.25 3.5,12.25 L5,12.25 C5.27614237,12.25 5.5,12.0261424 5.5,11.75 L5.5,10.25 C5.5,9.97385763 5.27614237,9.75 5,9.75 Z M6,0 C6.27614237,0 6.5,0.223857625 6.5,0.5 L6.5,2.5 L11.5,2.5 L11.5,0.5 C11.5,0.223857625 11.7238576,0 12,0 L13.5,0 C13.7761424,0 14,0.223857625 14,0.5 L14,2.5 L16.125,2.5 C17.1605339,2.5 18,3.33946609 18,4.375 L18,5.75 C18,6.02614237 17.7761424,6.25 17.5,6.25 L0.5,6.25 C0.223857625,6.25 0,6.02614237 0,5.75 L0,4.375 C0,3.33946609 0.839466094,2.5 1.875,2.5 L4,2.5 L4,0.5 C4,0.223857625 4.22385763,0 4.5,0 L6,0 Z" id="Calendar-Icon" fill="#627181"></path>
            </g>
        </g>
    </g>
</svg>