<?xml version="1.0" encoding="UTF-8" standalone="no"?>
<svg
   width="20"
   height="20"
   viewBox="0 0 20 20"
   version="1.1"
   id="svg1"
   sodipodi:docname="home.svg"
   inkscape:version="1.3.2 (091e20e, 2023-11-25)"
   xmlns:inkscape="http://www.inkscape.org/namespaces/inkscape"
   xmlns:sodipodi="http://sodipodi.sourceforge.net/DTD/sodipodi-0.dtd"
   xmlns="http://www.w3.org/2000/svg"
   xmlns:svg="http://www.w3.org/2000/svg">
  <defs
     id="defs1" />
  <sodipodi:namedview
     id="namedview1"
     pagecolor="#505050"
     bordercolor="#eeeeee"
     borderopacity="1"
     inkscape:showpageshadow="0"
     inkscape:pageopacity="0"
     inkscape:pagecheckerboard="0"
     inkscape:deskcolor="#505050"
     inkscape:zoom="0.59087343"
     inkscape:cx="200.55057"
     inkscape:cy="199.70436"
     inkscape:window-width="1312"
     inkscape:window-height="449"
     inkscape:window-x="0"
     inkscape:window-y="38"
     inkscape:window-maximized="0"
     inkscape:current-layer="svg1" />
  <!-- No explicit background rectangle here, so it's transparent -->
  <path
     d="m 10.209232,0.00881084 c 0.599242,0.05125892 1.163471,0.29901797 1.719768,0.75515022 0.110886,0.0909748 0.93141,0.90794254 3.301951,3.28772814 0.58261,0.5848528 1.517849,1.5237043 2.078304,2.086291 2.832199,2.8430849 2.560805,2.5625566 2.632744,2.7212554 0.248743,0.548585 -0.351591,1.0912605 -0.870088,0.7865525 -0.11395,-0.067014 -0.261326,-0.2220483 -0.510235,-0.5368224 -0.0075,-0.00958 -0.018,-0.00739 -0.06592,0.013785 l -0.05689,0.02516 0.0023,3.8341233 c 0.0013,2.108831 -5.5e-4,3.903325 -0.0041,3.987845 -0.04585,1.081467 -0.634636,1.731857 -1.677809,1.853248 -0.124673,0.0145 -12.7718031,0.02358 -13.3063275,0.0095 C 2.4480962,18.806277 1.7972688,18.294238 1.6137883,17.38564 1.5614899,17.126666 1.5659729,17.493081 1.5611064,13.084334 L 1.5566563,9.085548 1.3865239,9.2513049 C 0.77191237,9.8500513 0.4605298,9.8895491 0.05981549,9.4197407 L 0,9.3496552 2.1900181e-4,9.1124532 4.9250406e-4,8.8752517 0.11871048,8.7539712 C 0.18370002,8.6872842 0.32292467,8.5453245 0.42806803,8.4385956 0.5332114,8.3318643 0.8117162,8.0479999 1.0470576,7.8078439 1.8369462,7.0016533 4.5326534,4.2908462 6.9220126,1.8999559 7.9511811,0.87018493 8.0339503,0.79091728 8.2438,0.63489799 8.8712677,0.16837266 9.5492858,-0.04765863 10.209193,0.00879734 M 9.817023,1.2659292 C 9.517074,1.3071195 9.2380232,1.429224 8.9841361,1.6304302 8.8848463,1.7090959 6.7462032,3.8505855 3.6224804,6.9991983 2.8585216,7.7692281 2.8868618,7.7360223 2.8369679,7.9210894 l -0.01745,0.064662 -6.5e-4,4.5405866 -7e-4,4.540586 0.017835,0.08014 c 0.05569,0.250603 0.2025732,0.380473 0.4760449,0.421119 0.1193665,0.01773 0.905042,0.0227 2.4031449,0.01532 l 1.1583815,-0.0058 3.875e-4,-2.313428 c 6.5e-4,-2.883511 -6.5e-4,-2.825633 0.072431,-3.114532 0.2084817,-0.824188 0.8629192,-1.372662 1.7424694,-1.46041 0.1434377,-0.01433 2.4820839,-0.01417 2.6281469,1.65e-4 0.953239,0.09349 1.648597,0.745248 1.787055,1.675073 0.02331,0.156675 0.02752,0.539119 0.0279,2.547238 1.64e-4,1.051816 3.27e-4,2.082627 3.82e-4,2.290671 l 5.5e-5,0.378176 1.79723,-0.0022 1.79723,-0.0022 0.06472,-0.01822 c 0.21056,-0.05936 0.327082,-0.18928 0.382553,-0.426536 0.01362,-0.05821 0.02062,-6.188581 0.0096,-8.3857058 L 17.179611,7.937179 17.160676,7.880615 C 17.116943,7.749777 17.100365,7.7277313 16.868743,7.4924988 15.13393,5.7308263 11.159599,1.7471392 11.022014,1.6319842 10.674418,1.3410618 10.237377,1.2083472 9.817078,1.2659527 M 9.08928,11.935983 c -0.36275,0.0065 -0.3934942,0.0092 -0.5052027,0.04551 -0.2065667,0.06696 -0.3677815,0.238405 -0.42599,0.45285 -0.026315,0.09705 -0.029485,0.403068 -0.03036,2.908128 l -7.5e-4,2.2137 h 1.8760587 1.876007 l -7.5e-4,-1.906421 c -10e-4,-2.548441 -0.0064,-3.120878 -0.0303,-3.208296 -0.0779,-0.284905 -0.302356,-0.467182 -0.612152,-0.497105 -0.10569,-0.01023 -1.6962976,-0.01641 -2.1465213,-0.0084"
     fill="#ffffff"
     stroke="none"
     fill-rule="evenodd"
     id="path1"
     style="stroke-width:0.0547055" />
</svg>
